<?xml version="1.0" standalone="no"?>
<!DOCTYPE svg PUBLIC "-//W3C//DTD SVG 20010904//EN"
 "http://www.w3.org/TR/2001/REC-SVG-20010904/DTD/svg10.dtd">
<svg version="1.0" xmlns="http://www.w3.org/2000/svg"
 width="253.000000pt" height="253.000000pt" viewBox="0 0 253.000000 253.000000"
 preserveAspectRatio="xMidYMid meet">

<g transform="translate(0.000000,253.000000) scale(0.100000,-0.100000)"
fill="#000000" stroke="none">
<path d="M1175 2370 c4 -6 -11 -10 -38 -10 -34 0 -49 -6 -67 -25 -13 -14 -29
-25 -35 -25 -14 0 -55 -42 -55 -57 0 -6 -16 -17 -36 -23 -29 -10 -39 -21 -59
-66 -30 -67 -48 -152 -49 -224 -1 -49 1 -55 21 -58 18 -3 23 3 28 35 10 60 57
154 90 178 43 32 212 46 252 20 20 -14 27 -15 34 -4 6 10 19 11 66 2 144 -27
162 -37 215 -122 17 -26 22 -52 23 -115 3 -74 9 -106 34 -161 l10 -20 0 20 c1
15 3 17 10 7 15 -24 23 54 23 215 -1 117 -4 158 -16 181 -17 32 -61 72 -80 72
-8 0 -11 13 -8 35 3 28 -1 40 -26 65 -17 16 -38 30 -47 30 -9 0 -24 9 -33 20
-10 12 -39 24 -71 30 -71 13 -194 13 -186 0z m302 -66 c-3 -3 -12 -4 -19 -1
-8 3 -5 6 6 6 11 1 17 -2 13 -5z m21 -41 c1 -22 0 -24 -8 -13 -12 18 -13 40
-2 40 4 0 9 -12 10 -27z m19 -15 c-3 -8 -6 -5 -6 6 -1 11 2 17 5 13 3 -3 4
-12 1 -19z"/>
<path d="M1072 1753 c-10 -4 -10 -8 -1 -19 9 -11 7 -14 -10 -14 -27 0 -81 -27
-81 -40 0 -12 7 -12 35 -1 12 5 25 3 33 -6 18 -18 51 -17 58 2 5 12 10 13 20
4 35 -29 66 29 33 62 -18 18 -58 24 -87 12z"/>
<path d="M1314 1731 c-25 -15 -31 -25 -28 -46 4 -38 17 -49 43 -36 12 7 21 16
21 21 0 6 5 10 10 10 6 0 10 -6 10 -14 0 -11 17 -15 75 -15 71 0 75 1 65 18
-5 11 -13 21 -17 23 -5 3 -3 3 4 2 6 -2 14 4 17 12 3 8 0 15 -7 16 -7 0 -16 2
-22 2 -5 1 -20 7 -32 14 -33 18 -104 15 -139 -7z"/>
<path d="M1619 1678 c-1 -2 -3 -41 -4 -88 -3 -111 -26 -172 -92 -244 l-51 -58
-17 36 c-10 20 -22 36 -29 36 -6 0 -28 14 -49 31 -27 22 -36 36 -32 49 8 24
-11 29 -101 28 l-72 -1 1 -34 c1 -35 -16 -55 -39 -46 -8 3 -33 -5 -58 -16 -43
-21 -56 -41 -56 -87 0 -25 -30 -41 -41 -22 -22 35 -36 54 -58 77 -25 26 -59
103 -68 154 -3 15 -10 27 -15 27 -6 0 -7 -25 -3 -62 3 -35 8 -79 10 -98 17
-175 27 -211 69 -253 17 -17 106 -202 106 -221 0 -6 16 -36 35 -66 19 -30 35
-66 35 -81 0 -15 8 -35 18 -46 9 -10 13 -13 8 -6 -5 8 -11 33 -13 56 -2 23
-26 89 -54 146 -27 57 -47 106 -45 109 3 2 23 -9 45 -25 23 -17 37 -33 33 -37
-4 -4 -2 -6 3 -5 15 5 89 -12 102 -22 6 -6 22 -9 35 -7 39 4 128 -13 128 -25
0 -9 2 -9 8 0 11 17 36 -1 29 -21 -4 -9 -2 -16 3 -16 5 0 7 -13 4 -30 -5 -20
-3 -30 6 -30 7 0 10 -7 6 -15 -4 -13 -1 -12 20 1 28 19 64 82 64 113 0 11 5
23 10 26 6 3 10 18 11 33 0 21 2 23 7 9 11 -28 35 66 36 141 1 44 5 65 16 72
8 5 16 24 17 42 2 48 20 145 28 158 8 13 15 106 18 222 2 73 11 95 20 48 7
-32 13 -35 36 -21 20 13 6 65 -15 57 -9 -3 -24 -1 -35 4 -10 6 -20 9 -20 8z
m-364 -249 c5 -5 1 -9 -12 -9 -29 0 -53 10 -53 22 0 12 50 2 65 -13z m-19 -69
c24 0 34 -4 32 -12 -5 -15 -78 -22 -128 -13 l-35 7 23 18 c18 15 29 17 48 10
14 -6 41 -10 60 -10z m67 -55 c21 -3 46 -9 55 -14 9 -5 25 -12 34 -15 20 -6
16 -22 -18 -77 -22 -35 -68 -57 -80 -38 -3 5 -2 27 1 49 4 29 2 40 -7 41 -77
8 -85 0 -67 -63 13 -51 6 -68 -29 -68 -20 0 -40 12 -69 43 -63 65 -79 110 -50
139 14 13 149 15 230 3z"/>
<path d="M308 1362 l-308 -2 0 -610 0 -610 478 0 479 0 -9 63 c-4 34 -16 152
-27 262 -18 196 -18 252 0 223 6 -8 9 1 10 27 1 22 1 43 0 48 0 4 3 7 9 7 5 0
10 -6 10 -14 0 -8 5 -18 11 -22 8 -4 9 0 4 15 -8 26 3 27 21 4 12 -17 13 -16
14 8 0 14 -6 31 -12 38 -11 11 -10 13 4 8 11 -4 18 1 22 16 11 39 -49 70 -98
51 -13 -5 -16 -24 -16 -101 0 -71 -3 -94 -12 -91 -17 6 -20 80 -11 261 5 81 6
147 3 147 -3 0 -16 -14 -30 -31 -40 -50 -106 -89 -183 -110 -79 -22 -305 -97
-406 -135 -35 -13 -66 -23 -68 -21 -2 2 115 124 259 272 145 147 262 271 260
277 -1 5 2 7 7 4 5 -4 12 -2 15 3 9 13 -81 16 -426 13z m702 -524 c0 -14 -16
-9 -36 13 -19 21 -19 21 9 8 15 -7 27 -16 27 -21z"/>
<path d="M2044 1359 c-16 -4 -21 -7 -11 -8 10 0 16 -4 14 -8 -3 -5 105 -118
239 -253 l244 -245 0 257 0 257 -228 3 c-126 2 -242 0 -258 -3z"/>
<path d="M1636 976 c4 -12 13 -33 20 -48 8 -15 14 -43 14 -63 0 -38 -28 -163
-40 -180 -4 -5 -1 -48 6 -95 23 -137 44 -320 44 -387 l0 -63 425 0 425 0 0
111 c0 99 -2 110 -15 99 -19 -16 -12 -23 -70 85 -26 50 -61 114 -78 143 -16
30 -34 74 -38 98 -5 25 -16 60 -24 79 -18 36 -10 32 -215 100 -63 21 -151 51
-195 67 -45 16 -122 39 -173 52 l-92 23 6 -21z"/>
<path d="M1570 887 c-8 -7 -21 -24 -29 -39 -13 -25 -12 -30 2 -46 10 -10 17
-28 17 -40 0 -12 5 -22 10 -22 6 0 15 -10 20 -22 6 -17 9 2 9 65 1 68 4 86 14
81 9 -6 9 -4 -1 8 -11 14 -10 17 5 21 13 3 11 5 -7 6 -14 0 -32 -5 -40 -12z"/>
<path d="M1509 803 c0 -5 -2 -17 -4 -28 -4 -20 -4 -20 11 -1 8 11 14 23 14 28
0 10 -20 11 -21 1z"/>
<path d="M1462 740 c0 -14 2 -19 5 -12 2 6 2 18 0 25 -3 6 -5 1 -5 -13z"/>
</g>
</svg>
